<svg xmlns="http://www.w3.org/2000/svg" width="134" height="133" xmlns:v="https://vecta.io/nano"><path d="M80 5l2.313 2.688C85.467 10.402 86.029 10.212 90 10c8.049-.382 15.616 2.336 21.938 7.313L114 20l1.477 1.707c4.519 5.465 8.397 12.221 8.578 19.48-.32 2.48-.937 4.577-2.055 6.813l1.688.688c3.997 2.269 6.852 4.931 8.313 9.313.654 7.832.652 14.452-4 21l-2.047 2.23c-2.402 3.406-2.902 6.553-3.453 10.582-.979 5.972-2.034 11.148-5.5 16.188l-1.238 1.852c-6.567 8.694-15.65 10.428-25.891 12.191-4.157 1.028-7.355 2.574-11.059 4.645-7.295 3.899-13.117 4.573-21.16 2.793-3.441-1.1-5.502-2.31-7.887-5.027-3.429-3.041-6.194-3.271-10.578-3.516-9.899-.927-15.615-3.452-22.43-10.762-5.256-6.506-6.363-13.293-6.724-21.504-.21-2.787-.448-5.03-2.375-7.142C6.138 80.311 4.57 79.153 3 78-.938 72.241-.687 64.675 0 58c1.641-4.75 4.223-7.707 8-11h2l-.125-3.937c.064-10.16 2.913-17.199 9.688-24.82 5.565-5.324 12.707-7.941 20.313-8.555 2.772.277 5.418.656 8.125 1.313l.625-1.75c2.127-3.481 5.335-5.586 9.211-6.848C65.565.965 72.997 1.437 80 5z" fill="#10c5de"/><path d="M96 42c8.015-.543 14.472 1.335 22 4l2.211.758c4.805 1.825 8.166 4.662 10.902 9.012 2.115 5.319 1.802 12.268.129 17.684-1.457 3.005-3.021 5.306-5.289 7.777-2.402 3.406-2.902 6.553-3.453 10.582-.979 5.972-2.034 11.148-5.5 16.188l-1.238 1.852c-6.567 8.694-15.65 10.428-25.891 12.191-4.157 1.028-7.355 2.574-11.059 4.645-7.295 3.899-13.117 4.573-21.16 2.793-4.682-1.496-7.541-3.76-10.652-7.48-1.101-2.626-1.69-5.277-2.25-8.062l-.504-2.269a76.23 76.23 0 0 1-1.679-16.153c-.375-2.78-.375-2.78-3.082-4.824-2.982-3.23-3.02-4.605-2.924-8.818l.127-2.186.068-2.244L37 72c11.745.23 11.745.23 15.734 4.242C59.815 86.077 62.623 99.313 65 111c1.94-2.91 2.901-5.296 4.023-8.586l1.156-3.32 2.367-6.914 1.164-3.328 1.041-3.037C78.004 78.483 82.876 75.871 90 73c6.947-2.489 13.968-4.761 21-7v-3l-15-3c-1.036-4.144-.915-7.021-.562-11.25l.309-3.828L96 42z" fill="#13c6de"/><path d="M84 10c10.264-.832 19.674.807 27.938 7.313L114 20l1.477 1.707c4.516 5.461 8.48 12.28 8.543 19.551-.27 1.93-.27 1.93-1.02 4.742-4.368 1.278-7.002.613-11.25-.875C106.404 43.361 101.605 42.38 96 42v17l15 3 1 4c-3.89 1.744-7.768 3.299-11.812 4.648l-2.57.859-5.234 1.711c-9.417 3.1-9.417 3.1-15.717 10.317-1.264 3.081-2.363 6.18-3.416 9.339l-2.234 6.367-1.037 3.011c-1.184 3.324-2.53 6.53-3.979 9.747l-2-1c-.853-2.934-1.606-5.843-2.312-8.812C58.137 87.482 58.137 87.482 50 75c-2.254-.936-2.254-.936-4.625-1.187-4.197-.634-4.197-.634-6.375-2.812-3.643-.906-7.285-1.685-10.967-2.412C26 68.152 23.996 67.585 22 67l-1-3 3.297-1.102C42.439 57.381 42.439 57.381 56 45c1.751-3.892 3.079-7.875 4.375-11.937l1.074-3.229L64 22h4l.699 2.422c4.408 16.967 4.408 16.967 14.801 30.391 2.207 1.048 4.137 1.642 6.5 2.188l.125-13.375.051-3.793C90.229 29.726 90.067 21.292 84 13v-3z" fill="#eef8f9"/><path d="M65 21l3 1c.992 2.52.992 2.52 1.875 5.813 2.15 7.487 4.498 15.217 8.828 21.762C80 52 80 52 79.855 54.238L78 60h-8v-9h-8v9h-8v8h8v9h9l1-4 6 1a58.58 58.58 0 0 1-1.937 6.625c-.833 2.645-1.357 4.978-1.812 7.688C72.784 96.135 69.747 103.555 67 111h-3l-.918-3.734C59.2 89.865 59.2 89.865 50 75c-2.254-.936-2.254-.936-4.625-1.187-4.197-.634-4.197-.634-6.375-2.812-3.643-.906-7.285-1.685-10.967-2.412C26 68.152 23.996 67.585 22 67l-1-3 3.297-1.102C42.44 57.383 42.44 57.383 56 45c1.729-3.871 3.036-7.835 4.313-11.875l2.051-6.242.884-2.769C64 22 64 22 65 21z" fill="#eff8f8"/><path d="M37 72c11.745.23 11.745.23 15.734 4.242 6.329 8.791 9.224 20.481 11.391 30.945.519 3.811.519 3.811 2.875 5.813 2.035.277 2.035.277 4.352.195l2.578-.02 2.695-.051 2.719-.027L86 113c-1.627 9.675-1.627 9.675-4.875 12.809-7.334 4.543-15.048 5.452-23.516 3.695-4.644-1.569-7.5-3.786-10.609-7.504-1.101-2.626-1.69-5.277-2.25-8.062l-.504-2.269a76.23 76.23 0 0 1-1.679-16.153c-.375-2.78-.375-2.78-3.082-4.824-2.982-3.23-3.02-4.605-2.924-8.818l.127-2.186.068-2.244L37 72z" fill="#0c5d84"/><path d="M124 83c-2.868 19.119-2.868 19.119-7 25l-1.238 1.848c-6.547 8.686-16.266 10.785-26.441 12.77-2.91.336-4.615.375-7.32-.617l.953-2.141C87.138 109.826 89.097 99.664 91 89l2.203-.113c7.91-.517 16.727-1.147 23.828-4.984 2.43-1.114 4.326-1.049 6.969-.902z" fill="#eaf9f9"/><path d="M10 83c3.066.465 5.4 1.186 8.234 2.504 4.944 2.208 10.106 2.258 15.445 2.58 5.75.476 5.75.476 8.301 2.443 1.501 3.64 1.772 7.195 2.082 11.098l.465 4.844.23 2.355c.46 4.127 1.329 8.129 2.243 12.176-10.625.485-17.918-.107-26.25-7.062-8.642-8.386-10.385-16.164-10.707-27.789L10 83z" fill="#edf7f8"/><path d="M48 11c-.649 3.685-1.669 7.045-2.937 10.563C42.989 27.633 41.855 33.654 41 40l-1.785.335-8.153 1.54-2.807.527A480.9 480.9 0 0 0 11 46c-2.41-4.821-.698-11.798.867-16.734 3.851-8.553 10.04-14.341 18.758-17.766C36.665 9.585 41.844 9.508 48 11z" fill="#edf9f9"/><path d="M7 48c3.672 3.08 4.568 5.248 5 10h2l.688 2.875c.961 3.208.961 3.208 3.316 4.195 4.839 1.502 9.789 2.44 14.754 3.43 2.094.439 4.171.963 6.242 1.5l1 2h-3v16l2 1c-12.814.424-26.196-2.047-36-11-3.37-6.507-3.756-12.747-3-20 1.54-4.313 3.606-6.957 7-10z" fill="#18a5da"/><path d="M91 36h1l.125 9.813.051 2.814.02 2.705.032 2.491C92 56 92 56 90 59l-3 2 4 2-2 2 4 1v2l6 1c1.47-3.911 1.47-3.911 2-8h-8l2-12h1v10l15 3 1 4c-3.89 1.744-7.768 3.299-11.812 4.648l-2.57.859-5.234 1.711c-8.992 3.033-8.992 3.033-15.472 9.645C75.951 84.99 75.951 84.99 75 88c-1.371-3.69-.6-5.709.938-9.25l1.152-2.703L78 74h-6l-1 3h-9v-9h-8v-8h8v-9h8v9h8l-.187-2.375L78 55l3-2 2.25 1.438C86.086 56.212 86.086 56.212 90 57l1-21z" fill="#eaf6f7"/><path d="M96 42c8.015-.543 14.472 1.335 22 4l2.211.758c4.805 1.825 8.166 4.662 10.902 9.012 2.137 5.377 1.753 12.306.129 17.789-1.828 3.923-3.188 5.712-7.242 7.441l-1.355-2.738-1.832-3.574-1.793-3.551c-2.104-3.268-3.636-4.38-7.02-6.137l-1-2a109.19 109.19 0 0 0-7.562-1.625l-2.154-.406L96 60c-1.301-3.815-.894-7.276-.562-11.25l.309-3.828L96 42zM73.352 17.902l2.578.01 2.695.025 2.719.014L88 18c2.465 5.588 3.126 10.876 3.133 16.949l.004 3.318-.012 3.42.012 3.455-.004 3.307-.003 3.01C91 54 91 54 90 57c-4.944-.46-7.391-1.61-11-5-6.072-9.91-11.121-21.347-12-33 2.349-1.174 3.738-1.115 6.352-1.098z" fill="#0e5d84"/><path d="M90 10c8.057.52 15.371 2.031 21.75 7.25L114 20l1.523 1.816c3.795 4.73 7.573 9.93 7.43 16.242C122.688 40 122.688 40 122 43c-6.28-1.811-6.28-1.811-8.25-5.062a134.31 134.31 0 0 1-1.906-4.781c-.936-2.392-2.247-4.16-3.844-6.156v-2c-2.364-1.243-4.71-2.28-7.199-3.262l-3.488-1.426-3.512-1.387C91 17 91 17 90.105 13.293L90 10z" fill="#196285"/><path d="M123 89c-1.424 10.196-4.062 18.984-12 26-6.665 4.533-13.028 5.833-21 6-.35-4.459-.35-4.459 1-7 2.861-1.628 5.712-2.696 8.824-3.762 5.106-1.991 8.351-3.682 10.969-8.621l2.104-5.66c2.16-5.605 4.059-7.284 10.104-6.957z" fill="#1c6384"/><path d="M10 90l8 1 .629 1.906c2.591 7.197 5.825 13.552 12.719 17.406a85.81 85.81 0 0 0 4.637 1.898C38 113 38 113 41 115c.688 3.125.688 3.125 1 6-8.539.545-14.658-1.518-21.25-7.062C13.495 106.976 10.482 99.956 10 90z" fill="#1d6081"/><path d="M43 10c-.582 3.285-.582 3.285-2 7-3.012 1.934-3.012 1.934-6.687 3.438C28.119 23.202 23.554 26.092 20 32a77.82 77.82 0 0 0-1.5 4.375L17 40c-3.687 1.5-3.687 1.5-7 2 .231-9.862 2.95-17.432 10.125-24.375C26.758 12.164 34.395 9.235 43 10z" fill="#1c6181"/><path d="M62 51h8v9h8v8h-8v9h-8v-9h-8v-8h8v-9z" fill="#115b7f"/><path d="M65 21l3 1c1.027 2.555 1.027 2.555 1.938 5.875C71.699 34.03 73.743 40.01 76 46h-3l-1-6-6 3 1-5h-2v-2l-3 1v6l-4 2c-1.162-3.485-.804-4.274.398-7.633l.953-2.691 1.023-2.801 1-2.824C63.844 22.156 63.844 22.156 65 21zm3 14l1 2z" fill="#ebf9f8"/><path d="M44 68v2l5 1v-2l3 1-1 3h7l-1 4 3-1 1-7h-7v-1h8v9h8v2l-3.25.25c-4.024.805-5.232 1.627-7.75 4.75l1 1.813C61 88 61 88 61 91h-2l-1.391-2.957-1.859-3.855-.91-1.947c-1.774-3.642-3.23-6.28-6.84-8.24l-3.625-.5L41 73l-2-3c3-2 3-2 5-2z" fill="#e0f2f7"/><path d="M95 49h1v10l15 3 1 4c-15.4 7-15.4 7-22 7v-2c3.371-1.498 5.204-2 9-2 1.47-3.911 1.47-3.911 2-8h-8l2-12z" fill="#ddf2f4"/><path d="M90 10c6.195.416 11.267 1.603 17 4l-5 5v-2l-4 3c-4.845-1.497-4.845-1.497-7-3-.937-3.687-.937-3.687-1-7z" fill="#1b6387"/><path d="M1 67l4 2-1 1v5l2 1v-2h2l-1 6 3-1v3l2.938.313c2.946.407 5.526 1.158 8.313 2.188 4.477 1.595 8.736 1.972 13.465 2.191C37 87 37 87 39 89c-12.741.422-26.298-2.004-36-11-1.18-2.035-1.18-2.035-1.875-4.062l-.742-2.035C0 70 0 70 1 67z" fill="#37a3c9"/><path d="M56 45c3.875 3.75 3.875 3.75 5 6h1v9h-8v-1h7l-2-5h-3l-1-3-1.812 2C51 55 51 55 48 55v2c-3.839 1.483-6.062 2.224-10 1l2.414-1.066C47.173 53.785 51.63 51.07 56 45z" fill="#e4f9f8"/><path d="M62 51h8v1h-7l.035 1.977c.05 4.8-.041 9.301-1.035 14.023h-8v-8h8v-9z" fill="#1d6180"/><path d="M10 83c3.106.471 5.535 1.234 8.438 2.5 3.276 1.38 6.054 2.072 9.563 2.5v1l-8 1 1 7h-2l-1-6-8-1v-7z" fill="#d8f1f8"/><path d="M98 112l.625 1.938c1.27 2.412 1.27 2.412 4.5 2.813L106 117c-3.558 3.558-8.647 3.952-13.5 4.125L90 121l1-7c4.75-2 4.75-2 7-2zm0 4l1 2z" fill="#2a6985"/><path d="M119 29c2.829 3.198 3.734 5.737 4 10-.937 2.375-.937 2.375-2 4-2.875-1.062-2.875-1.062-6-3-1.375-3.687-1.375-3.687-2-7l2.438-.875c2.695-.858 2.695-.858 3.563-3.125z" fill="#276a87"/><path d="M114 37l1 3c3.008 1.225 3.008 1.225 6 2l1-3h2l-1 7c-5.128 1.82-9.177-.14-14-2l1.938-1.812c2.266-2.096 2.266-2.096 3.063-5.187z" fill="#c5e0ea"/><path d="M38 60c-1.187 1.5-1.187 1.5-3 3-2.687.188-2.687.188-5 0v4l2.375-.187L35 67l2 3-15-3-1-3 7.375-2.562 2.117-.748C35.773 58.887 35.773 58.887 38 60z" fill="#c1f7fc"/><path d="M42 11h6c-.689 3.911-1.783 7.555-3.062 11.313l-1.098 3.238L43 28h-1l1-9-9 1c2.36-2.36 3.779-2.491 7-3l1-6z" fill="#b2e7ef"/><path d="M28 109c11.144 3.698 11.144 3.698 13.242 6.891.508 1.922.508 1.922.758 5.109-5.772.368-10.723-.531-16-3l-1-2c3.517.653 6.893 1.514 10.313 2.563l2.676.816L40 120v-4h-6v-2l-6-1v-4z" fill="#276482"/><path d="M84 10h6l.375 3.25c.435 1.986.435 1.986 1.625 3.75 3.185 1.83 6.487 2.957 10 4l-1 2h-3v-2l-2.047-.227c-7.334-1.081-7.334-1.081-10.578-4.711C84 13 84 13 84 10z" fill="#daf3f7"/><path d="M18 35h2v7l2.063-.5c3.354-.571 6.541-.567 9.938-.5v1l-3.832.621-4.98.816-2.525.408-2.432.4-2.238.365c-2.189.383-2.189.383-4.993 1.389l-1-4 3.438-1.25c3.658-1.317 3.658-1.317 4.5-3.937L18 35z" fill="#c9f1f7"/><path d="M107 62l5 1c-.254 1.894-.254 1.894-1 4-1.718 1.005-1.718 1.005-3.93 1.703l-2.41.781-2.535.766-2.512.813C93.494 73 93.494 73 90 73v-2c3.371-1.498 5.204-2 9-2l2-4v2l6-1v-4z" fill="#c1f4f9"/><path d="M123 89c-.931 6.156-1.794 11.608-5 17-1-2-1-2-.187-5.562C119 97 119 97 121 96v-4h-2v3h-3l-1 4-3-1 1.875-3.937 1.055-2.215c1.985-3.427 4.43-2.943 8.07-2.848z" fill="#296781"/><path d="M43 10l-2 7-5 1-1.312-1.875C33.003 13.78 33.003 13.78 30 12c4.504-1.757 8.176-2.193 13-2z" fill="#246684"/><path d="M68 27c1.601 2.402 2.536 4.152 3.508 6.793l.801 2.158.816 2.236.84 2.271L76 46h-3l-1-6-6 3 1.563-5.75c.666-3.426.496-6.763.438-10.25z" fill="#c0e9f0"/><path d="M15 97c3.491 1.083 4.055 2.105 5.813 5.438C22 106 22 106 21 109l-4-1v-6l-4-2 2-1v-2z" fill="#135f86"/><path d="M91 36h1l.125 9.813.051 2.814.02 2.705.032 2.491C92 56 92 56 90 59c-3.125.188-3.125.188-6 0v-2l-4-2 1-2 2.25 1.438C86.086 56.212 86.086 56.212 90 57l1-21z" fill="#c3e5ed"/><path d="M69 102c1.17 3.917.696 6.98 0 11h14v-2h3l1-2v4c-2.707.902-4.238 1.119-7.012 1.098l-2.295-.01-2.381-.025-2.416-.014L67 114c-1.16-3.479-.775-4.342.438-7.687l.871-2.449L69 102z" fill="#25bed8"/><path d="M72 90l2 1-7 20h-3l-1-8 3 3 6-16z" fill="#c1fafd"/><path d="M116 67c3.295 2.957 5.011 5.693 6.75 9.75l1.297 2.984L125 82a101.17 101.17 0 0 1-6 2l-2-1 1.75-3.062c1.054-2.389 1.442-3.396.559-5.891-1.039-1.723-2.17-3.388-3.309-5.047v-2z" fill="#1ab6d1"/><path d="M61 2c8.147-.404 15.056-.451 21.5 5.188L84 9l-1 2-1-3c-4.615-1.042-4.615-1.042-9 0V6c-3.825-2.391-7.597-2.56-12-3V2z" fill="#2dbbcc"/><path d="M36.188 56.875L40 57c-3.418 2.953-6.927 4.154-11.187 5.563A133.3 133.3 0 0 0 22 65l-1 2-1-4 1.863-.805 2.449-1.07 2.426-1.055c6.927-3.278 6.927-3.278 9.449-3.195z" fill="#2abfd5"/><path d="M124 83l-1 6-2-1 1-3-1.871.875C114.074 88.529 109.598 89.426 103 89c2.836-1.891 4.209-2.39 7.438-3 4.926-.934 8.453-3.284 13.563-3z" fill="#b9f8fc"/><path d="M122 85c-.187 1.875-.187 1.875-1 4l-2.437.938c-2.808.836-2.808.836-3.875 3.688L114 96h-1l-1-8 3.875-1.5 2.18-.844C120 85 120 85 122 85z" fill="#d2f2f9"/><path d="M1 67l4 2-1 1v5l2 1v-2h2l-1 6c-1.812-.5-1.812-.5-4-2-1.372-2.561-2.397-5.156-3-8l1-3z" fill="#26a4cf"/><path d="M114 21c4.875 4.625 4.875 4.625 6 8-1.437 2.188-1.437 2.188-3 4l-5-1v-2l3-1c.082-3.044-.024-5.072-1-8z" fill="#155e83"/><path d="M90 10c6.195.416 11.267 1.603 17 4l-5 5 1-5-1.875.625L99 15l-2-2c-3.583-.167-3.583-.167-7 0v-3z" fill="#397b97"/><path d="M44 111c1.884 3.265 2.493 6.281 3 10h-5l-2-7 4 1v-4z" fill="#b1d3e2"/><path d="M60 3l1 3c-3.73 2.034-5.669 3-10 3l-3 2c1.986-5.562 6.286-8 12-8z" fill="#29bdd4"/><path d="M42 104l2 1v10l-6-1 2-2-1-2 3-6z" fill="#d9ebee"/><path d="M65 21l3 1v4h-2l-.812 2.375C64 31 64 31 61 33l1.438-5.437.809-3.059C64 22 64 22 65 21z" fill="#c9f6fa"/><path d="M10 83c3.558.61 6.683 1.578 10 3v1c-5.75.125-5.75.125-8-1v2l5 1v2l-7-1v-7z" fill="#b2e0ed"/><path d="M53 49l1 4c-3 2-3 2-6 2v2c-3.839 1.483-6.062 2.224-10 1l2.52-1.207 3.293-1.605 3.27-1.582C49.566 52.239 51.18 51.127 53 49z" fill="#c2f7fa"/><path d="M96 42c9.41-.369 9.41-.369 14 2l-1 2-12-2-1 2v-4z" fill="#286885"/><path d="M85 76l-3.312 2.063C77.716 80.86 76.517 83.448 75 88c-1.365-3.103-.9-4.306.188-7.625C77 77 77 77 78.938 75.5c2.397-.581 3.724-.164 6.063.5z" fill="#d1fafc"/><path d="M119 29c2.829 3.198 3.734 5.737 4 10-.937 2.375-.937 2.375-2 4l-1-2 1-3h-2c-1.125-6.75-1.125-6.75 0-9z" fill="#3f768f"/><path d="M111.563 20.188C114 21 114 21 116 24v4l-2-1-1-4-6 2-1-3c3-2 3-2 5.563-1.812z" fill="#105e86"/><path d="M86 113h1v7l3 1c-1.75 1.063-1.75 1.063-4 2l-4-1 4-9z" fill="#c2dfe9"/><path d="M36 59l2 1c-1.187 1.5-1.187 1.5-3 3-2.687.188-2.687.188-5 0v4l-4-1v-2c6.625-3.875 6.625-3.875 10-5z" fill="#d4fbfc"/><path d="M74 50l4 2-1 3-5 2-2 3v-9l2 3 2-4z" fill="#e4f2f2"/><path d="M95 49h1v10l11 2v1l-14-1 2-12z" fill="#bee0e9"/><path d="M78 80l1 4h-2l.188 2.125C76.955 89.693 75.807 91.942 74 95l-2 1c1.564-5.614 3.164-10.868 6-16z" fill="#3ec8d8"/><path d="M86 113l-1 5-1-2-3.687.063c-3.232.006-6.162-.275-9.312-1.062v-1l6.375-.5 3.586-.281L86 113z" fill="#0d7396"/><path d="M77.625 17.938l2.43.014L86 18v2l-3.141-.07-4.109-.055-2.066-.051c-3.744-.036-6.507.096-9.684 2.176v-3c3.31-1.655 6.991-1.101 10.625-1.062z" fill="#026a8f"/><path d="M44 68v2l6 2v2l-4.375-.312-2.461-.176C41 73 41 73 39 70c3-2 3-2 5-2z" fill="#c9eaf4"/><path d="M100 65h1v5l-3.812 1.5-2.145.844C93 73 93 73 90 73v-2c3.371-1.498 5.204-2 9-2l1-4z" fill="#d1fafd"/><path d="M48 50l4 1c-7.2 6-7.2 6-12 6v-2c3.228-2.152 4.284-2.201 8-2v-3z" fill="#2ac0d3"/><path d="M15 40l2 1-1 2 4 1-9 2-1-4 5-2z" fill="#a4e1ea"/><path d="M60 34h1l1 9-4 2c-1.136-3.409-.867-4.003.438-7.187l.871-2.168L60 34z" fill="#cff7fa"/><path d="M32 20l2 1-1.875.75c-2.28 1.067-2.28 1.067-3.062 3.313L28 27c-2.625.75-2.625.75-5 1 2.627-3.599 4.94-6.077 9-8z" fill="#def4fa"/><path d="M121 74h2v2l4-1 1 4-4 2-3-7z" fill="#126c8d"/><path d="M7 48l1 2c-1.312 2.625-1.312 2.625-3 5H3v3H1c.414-4.833 2.464-6.827 6-10z" fill="#31a5c8"/><path d="M44 21h1c.218 5.439.104 9.871-2 15h-1c-.194-5.527.252-9.756 2-15z" fill="#34c2d3"/><path d="M20 19c2.622 1.049 3.794 1.649 5.25 4.125L26 25l-4 3c-1-2-1-2-1-6l-2-1 1-2z" fill="#1f6889"/><path d="M32 13l4 3v2l-6 1-1-3 3-3z" fill="#0f6186"/><path d="M0 58h3v2l2 1-1 3c-2-1-2-1-3-2v6H0V58z" fill="#23aedf"/><path d="M91 12h6v4c-3 1-3 1-6 1v-5z" fill="#175c80"/><path d="M84 10h6l1 5-7-2v-3z" fill="#a8dce9"/><path d="M25 116c4.609.72 8.672 2.313 13 4-3.428 1.143-4.309.827-7.625-.312l-2.414-.801C26 118 26 118 25 116z" fill="#2a5b78"/><path d="M76 35c.688 1.75.688 1.75 1 4-1.437 2.25-1.437 2.25-3 4l-2-7 4-1z" fill="#11658b"/><path d="M63 103l1.438 1.5c1.322 1.615 1.322 1.615 2.563 1.5v5h-3l-1-8z" fill="#bdedf4"/><path d="M59 96c3.517 3.517 3.547 5.196 4 10l-3-1-1-9z" fill="#246781"/><path d="M122 77l3 4-1 2-7 1 1.938-2.375c2.044-2.42 2.044-2.42 3.063-4.625z" fill="#2db7ca"/><path d="M36 72h1v15h-1l-.684-5.957C35.028 78.806 35.028 78.806 34 76h2v-4z" fill="#259fd0"/><path d="M60 32c1 2 1 2 .441 3.945l-.879 2.18-.871 2.195L58 42h-1v-8l3-2z" fill="#28c0d6"/><path d="M108 15c4.875 2.625 4.875 2.625 6 6h-6v-6z" fill="#1b597b"/><path d="M76 124h5v2l-6 3-3-1 4-1v-3z" fill="#1e5b75"/><path d="M108 21l-2 4-6-4v-1c4.625-1.25 4.625-1.25 8 1z" fill="#266586"/><path d="M99 108h5c-2.53 3.092-5.225 3.909-9 5v-2h3l1-3z" fill="#d9f1f6"/><path d="M114 21c4.875 4.625 4.875 4.625 6 8h-4l-2-8z" fill="#1b5473"/><path d="M65 21l3 1-1 4-4 1 2-6z" fill="#a6ecf5"/><path d="M124 83l-1 6-2-1 1-3-3 1-2-2c2.463-1.231 4.28-1.072 7-1z" fill="#abe7eb"/></svg>