<svg xmlns="http://www.w3.org/2000/svg" version="1.1" viewBox="0 0 133.7386018237082 132.65024630541873" style="max-height: 500px" width="133.7386018237082" height="132.65024630541873">
<path transform="translate(0,0)" fill="#FDFEFE" d="M0 0 C217.8 0 435.6 0 660 0 C660 44.88 660 89.76 660 136 C442.2 136 224.4 136 0 136 C0 91.12 0 46.24 0 0 Z"/>
<path transform="translate(79.421875,5.80078125)" fill="#0EC7E0" d="M0 0 C8.15319237 6.19561895 9.96685827 16.33524247 11.32324219 25.89501953 C11.76518371 29.89027252 11.8729188 33.86947058 11.890625 37.88671875 C11.89872192 39.0173877 11.89872192 39.0173877 11.90698242 40.17089844 C11.85379966 44.27198342 11.40425528 47.51058109 9.578125 51.19921875 C4.711282 50.15632382 2.10392099 48.36644931 -0.9140625 44.57421875 C-5.63969168 37.13074067 -12.421875 24.22155265 -12.421875 15.19921875 C-15.35685279 17.66294659 -16.16652038 19.93668657 -17.234375 23.57421875 C-18.71379987 28.2037498 -20.35483349 32.67965743 -22.296875 37.13671875 C-22.74804688 38.17699219 -23.19921875 39.21726563 -23.6640625 40.2890625 C-27.73851432 47.03454385 -33.75767517 49.54779618 -40.796875 52.38671875 C-42.01503906 52.90008789 -42.01503906 52.90008789 -43.2578125 53.42382812 C-48.25376325 55.48545844 -53.1483859 57.01722981 -58.421875 58.19921875 C-57.61948927 60.37034422 -57.61948927 60.37034422 -55.5234375 60.91357422 C-54.29753906 61.23672607 -54.29753906 61.23672607 -53.046875 61.56640625 C-52.14324219 61.81261719 -51.23960938 62.05882813 -50.30859375 62.3125 C-49.35597656 62.56386719 -48.40335938 62.81523438 -47.421875 63.07421875 C-29.61595807 67.78095763 -29.61595807 67.78095763 -25.625 72.1796875 C-22.65177729 79.06440402 -20.52546454 86.12265234 -18.53515625 93.34375 C-17.89166726 95.66693039 -17.18676563 97.77936918 -16.27734375 100.0234375 C-15.421875 102.19921875 -15.421875 102.19921875 -15.421875 105.19921875 C-14.761875 105.19921875 -14.101875 105.19921875 -13.421875 105.19921875 C-13.24398437 104.16474609 -13.24398437 104.16474609 -13.0625 103.109375 C-11.78226649 97.2936801 -9.49887795 91.76909709 -7.421875 86.19921875 C-7.01582031 85.07515625 -6.60976562 83.95109375 -6.19140625 82.79296875 C-2.04817429 71.95888646 -2.04817429 71.95888646 3.578125 69.19921875 C7.05339731 67.82447958 10.54933055 66.58364949 14.09375 65.3984375 C17.76663512 64.13433915 21.22218446 62.60957282 24.73828125 60.97265625 C26.96706928 60.03571351 29.20958587 59.64331984 31.578125 59.19921875 C32.073125 58.20921875 32.073125 58.20921875 32.578125 57.19921875 C24.163125 55.21921875 24.163125 55.21921875 15.578125 53.19921875 C15.908125 47.58921875 16.238125 41.97921875 16.578125 36.19921875 C29.09476307 36.19921875 38.89424896 38.1481325 48.23828125 46.72265625 C52.07767032 51.10747385 52.25533234 55.58766669 52 61.26171875 C51.03199913 68.00187293 47.8360481 72.89728167 42.578125 77.19921875 C33.21084433 83.33714011 22.44346559 83.54053835 11.578125 83.19921875 C11.660625 84.35421875 11.743125 85.50921875 11.828125 86.69921875 C11.828125 96.51074106 8.83260723 107.91942857 3.578125 116.19921875 C-1.38836651 121.16571026 -6.82800747 123.34854282 -13.734375 123.69921875 C-20.4395335 123.48708856 -26.30802975 121.34230198 -31.0859375 116.51953125 C-36.05850778 109.97667562 -36.82788443 102.8502348 -37.484375 94.88671875 C-37.63797568 93.07778513 -37.79531993 91.26916411 -37.95703125 89.4609375 C-38.022854 88.66647217 -38.08867676 87.87200684 -38.15649414 87.0534668 C-38.23451658 85.18664599 -38.23451658 85.18664599 -39.421875 84.19921875 C-40.81147344 83.93898317 -42.21125951 83.73255424 -43.61328125 83.55078125 C-44.47630859 83.4321875 -45.33933594 83.31359375 -46.22851562 83.19140625 C-48.03787028 82.95032994 -49.84775889 82.71322126 -51.65820312 82.48046875 C-62.61742178 80.95768005 -70.57404395 77.56199701 -77.421875 68.57421875 C-79.3007533 62.23300447 -79.97880577 54.34840757 -76.921875 48.26171875 C-70.55803304 40.46601235 -62.36383009 36.18551076 -52.31835938 34.93798828 C-47.69121236 34.51447636 -43.06589001 34.31708715 -38.421875 34.19921875 C-38.38449219 33.23242188 -38.34710938 32.265625 -38.30859375 31.26953125 C-37.7259639 19.73117547 -36.70425122 9.89989679 -28.421875 1.19921875 C-20.60234552 -4.57233872 -8.31991118 -4.98145942 0 0 Z"/>
<path transform="translate(88,10)" fill="#F0F8F8" d="M0 0 C7.83346787 -0.8901668 14.94748742 2.2538895 21.375 6.609375 C26.02095965 10.44581138 29.15605995 14.7230314 32 20 C32.5775 21.010625 33.155 22.02125 33.75 23.0625 C35.20435165 26.48022638 35.86239453 29.28465231 36 33 C34.5078125 35.2109375 34.5078125 35.2109375 33 37 C32.28457031 36.80664062 31.56914063 36.61328125 30.83203125 36.4140625 C23.27089475 34.43818983 15.74030987 33.06117151 8 32 C8.01160156 32.80824219 8.02320312 33.61648437 8.03515625 34.44921875 C8.04417969 35.51785156 8.05320312 36.58648437 8.0625 37.6875 C8.07410156 38.74324219 8.08570312 39.79898438 8.09765625 40.88671875 C8.00865425 43.72410262 7.64939838 46.2438919 7 49 C8.08667969 49.18175781 8.08667969 49.18175781 9.1953125 49.3671875 C14.28497573 50.24939579 19.14883346 51.16442347 24 53 C23.67 53.99 23.34 54.98 23 56 C21.27636719 56.82836914 21.27636719 56.82836914 19.046875 57.47265625 C18.23283203 57.72031738 17.41878906 57.96797852 16.58007812 58.22314453 C15.30293945 58.60768799 15.30293945 58.60768799 14 59 C10.73603885 60.10736872 7.49325061 61.27106776 4.25 62.4375 C3.42628906 62.72431641 2.60257812 63.01113281 1.75390625 63.30664062 C-4.14669367 65.43978826 -8.60226548 67.26634723 -11.58984375 73.109375 C-12.03457031 74.31078125 -12.47929688 75.5121875 -12.9375 76.75 C-13.18129395 77.39525635 -13.42508789 78.0405127 -13.67626953 78.70532227 C-14.19335572 80.079214 -14.70360573 81.45569512 -15.20751953 82.83447266 C-16.02804179 85.07662682 -16.86891938 87.31028312 -17.71484375 89.54296875 C-19.15774775 93.35668661 -20.58315495 97.17652808 -22 101 C-22.66 101 -23.32 101 -24 101 C-24.37511719 99.86304687 -24.75023437 98.72609375 -25.13671875 97.5546875 C-26.47665245 93.503172 -27.83135388 89.45674729 -29.19189453 85.41210938 C-29.70224747 83.88875983 -30.20892773 82.36417046 -30.71044922 80.83789062 C-31.33762536 78.92994016 -31.98086901 77.02729339 -32.625 75.125 C-32.98851562 74.03445312 -33.35203125 72.94390625 -33.7265625 71.8203125 C-35.60079991 67.66939406 -37.51330294 65.609927 -41.7421875 63.875 C-43.29292969 63.441875 -43.29292969 63.441875 -44.875 63 C-46.01195313 62.67128906 -47.14890625 62.34257813 -48.3203125 62.00390625 C-50.85437808 61.3125529 -53.38956528 60.63286699 -55.9296875 59.96484375 C-57.19039062 59.62582031 -58.45109375 59.28679687 -59.75 58.9375 C-60.92046875 58.63714844 -62.0909375 58.33679688 -63.296875 58.02734375 C-64.18890625 57.68832031 -65.0809375 57.34929687 -66 57 C-66.495 55.515 -66.495 55.515 -67 54 C-66.44650879 53.78384033 -65.89301758 53.56768066 -65.32275391 53.3449707 C-48.14771 47.98312806 -48.14771 47.98312806 -34 38 C-32.92871168 35.48318663 -31.96725059 33.01210226 -31.0625 30.4375 C-30.53694162 28.99721939 -30.01089989 27.55711506 -29.484375 26.1171875 C-28.98895679 24.74501772 -28.49412237 23.37263695 -28 22 C-27.28302981 20.01638248 -26.55622842 18.0362408 -25.8125 16.0625 C-25.38904297 14.90427734 -25.38904297 14.90427734 -24.95703125 13.72265625 C-24 12 -24 12 -21 11 C-20.71801758 11.72590332 -20.43603516 12.45180664 -20.14550781 13.19970703 C-18.85437857 16.51106758 -17.55230624 19.8180201 -16.25 23.125 C-15.8065625 24.26710938 -15.363125 25.40921875 -14.90625 26.5859375 C-10.38109623 38.18561055 -10.38109623 38.18561055 -1 46 C-0.34 46 0.32 46 1 46 C5.07422482 33.31359262 2.21166984 14.43994965 -3.1328125 2.4609375 C-3.41898438 1.97882812 -3.70515625 1.49671875 -4 1 C-2.68 1.33 -1.36 1.66 0 2 C0 1.34 0 0.68 0 0 Z"/>
<path transform="translate(79.421875,5.80078125)" fill="#0DC7E0" d="M0 0 C8.15319237 6.19561895 9.96685827 16.33524247 11.32324219 25.89501953 C11.76518371 29.89027252 11.8729188 33.86947058 11.890625 37.88671875 C11.89872192 39.0173877 11.89872192 39.0173877 11.90698242 40.17089844 C11.85379966 44.27198342 11.40425528 47.51058109 9.578125 51.19921875 C4.711282 50.15632382 2.10392099 48.36644931 -0.9140625 44.57421875 C-5.63969168 37.13074067 -12.421875 24.22155265 -12.421875 15.19921875 C-15.35685279 17.66294659 -16.16652038 19.93668657 -17.234375 23.57421875 C-18.71379987 28.2037498 -20.35483349 32.67965743 -22.296875 37.13671875 C-22.74804688 38.17699219 -23.19921875 39.21726563 -23.6640625 40.2890625 C-27.73851432 47.03454385 -33.75767517 49.54779618 -40.796875 52.38671875 C-42.01503906 52.90008789 -42.01503906 52.90008789 -43.2578125 53.42382812 C-48.25376325 55.48545844 -53.1483859 57.01722981 -58.421875 58.19921875 C-57.62387265 60.36531651 -57.62387265 60.36531651 -55.56420898 60.88525391 C-54.37807007 61.18375244 -54.37807007 61.18375244 -53.16796875 61.48828125 C-52.31396484 61.70742187 -51.45996094 61.9265625 -50.58007812 62.15234375 C-49.68224609 62.3740625 -48.78441406 62.59578125 -47.859375 62.82421875 C-46.95767578 63.05367188 -46.05597656 63.283125 -45.12695312 63.51953125 C-42.89365995 64.08671682 -40.65872242 64.64624757 -38.421875 65.19921875 C-40.401875 65.69421875 -40.401875 65.69421875 -42.421875 66.19921875 C-42.421875 71.80921875 -42.421875 77.41921875 -42.421875 83.19921875 C-55.21198113 82.44685957 -65.94640108 81.18521284 -75.0234375 71.48828125 C-79.4370971 65.64449731 -79.36893388 59.25255251 -78.421875 52.19921875 C-76.65318103 46.06921106 -71.77330282 42.24460366 -66.421875 39.19921875 C-57.35190328 34.96116649 -48.25277082 34.44873387 -38.421875 34.19921875 C-38.38449219 33.23242188 -38.34710938 32.265625 -38.30859375 31.26953125 C-37.7259639 19.73117547 -36.70425122 9.89989679 -28.421875 1.19921875 C-20.60234552 -4.57233872 -8.31991118 -4.98145942 0 0 Z"/>
<path transform="translate(174,33)" fill="#106091" d="M0 0 C3.63 -0.0825 7.26 -0.165 11 -0.25 C12.12792969 -0.28641602 13.25585938 -0.32283203 14.41796875 -0.36035156 C21.97126353 -0.44291579 27.21191472 0.7969472 33.0234375 5.7109375 C37.54489764 11.27782195 39.56241687 16.31994739 39.37890625 23.5625 C38.45816994 29.48558717 35.50477086 35.03206712 31 39 C26.44425795 42.03716137 22.9605391 43.25654234 17.48046875 43.1953125 C16.55903076 43.19031738 15.63759277 43.18532227 14.68823242 43.18017578 C13.53299072 43.16196777 12.37774902 43.14375977 11.1875 43.125 C7.495625 43.08375 3.80375 43.0425 0 43 C0 28.81 0 14.62 0 0 Z"/>
<path transform="translate(37,72)" fill="#095C84" d="M0 0 C11.82198447 0.72750674 11.82198447 0.72750674 16 5 C21.38113113 14.33241884 24.46408864 26.38015497 26.89453125 36.85546875 C27.69502945 39.99757558 27.69502945 39.99757558 29.72265625 41.421875 C32.68727367 42.17447084 35.37844598 42.26414591 38.4375 42.25 C40.10619141 42.25773437 40.10619141 42.25773437 41.80859375 42.265625 C44.947009 42.00441051 47.16835425 41.33378454 50 40 C48.63687624 46.19601707 46.50975924 50.71900959 41.05859375 54.26171875 C34.32814761 57.69316267 27.48587714 58.44211698 20.25390625 56.1171875 C13.42662307 53.05353294 9.76772054 49.26446452 6.9296875 42.41796875 C5.46507146 37.03335095 5.28748887 31.54797902 4.96484375 25.9921875 C4.89652344 25.12335938 4.82820313 24.25453125 4.7578125 23.359375 C4.68264404 22.17553223 4.68264404 22.17553223 4.60595703 20.96777344 C4.40599121 20.3184082 4.20602539 19.66904297 4 19 C2.68 18.34 1.36 17.68 0 17 C0 11.39 0 5.78 0 0 Z"/>
<path transform="translate(88,10)" fill="#F3F8F8" d="M0 0 C7.83346787 -0.8901668 14.94748742 2.2538895 21.375 6.609375 C26.02095965 10.44581138 29.15605995 14.7230314 32 20 C32.5775 21.010625 33.155 22.02125 33.75 23.0625 C35.20435165 26.48022638 35.86239453 29.28465231 36 33 C34.5078125 35.2109375 34.5078125 35.2109375 33 37 C31.92685547 36.70996094 31.92685547 36.70996094 30.83203125 36.4140625 C23.25814063 34.43485693 15.75118485 33.09527612 8 32 C8 35.96 8 39.92 8 44 C7.67 44 7.34 44 7 44 C7 42.02 7 40.04 7 38 C6.34 38 5.68 38 5 38 C4.34 39.32 3.68 40.64 3 42 C2.96132812 40.38158203 2.96132812 40.38158203 2.921875 38.73046875 C2.63055286 30.19463388 1.84308978 21.9884009 0.0625 13.625 C-0.10733398 12.82344482 -0.27716797 12.02188965 -0.45214844 11.19604492 C-1.27036751 7.5541908 -2.06752466 4.24101245 -4 1 C-2.68 1.33 -1.36 1.66 0 2 C0 1.34 0 0.68 0 0 Z"/>
<path transform="translate(122,82)" fill="#F1F9F9" d="M0 0 C0.66 0.33 1.32 0.66 2 1 C1.01 1.99 0.02 2.98 -1 4 C-0.505 4.495 -0.505 4.495 0 5 C0.81306154 12.48016612 -1.49927314 19.43605738 -5.80078125 25.56640625 C-9.71575761 30.18075702 -13.4984521 33.46928797 -19 36 C-19.66 36 -20.32 36 -21 36 C-21 36.66 -21 37.32 -21 38 C-23.63064474 39.31532237 -25.6298344 39.09691198 -28.5625 39.0625 C-29.55378906 39.05347656 -30.54507813 39.04445312 -31.56640625 39.03515625 C-32.77103516 39.01775391 -32.77103516 39.01775391 -34 39 C-36.08428209 39 -38.09817964 40.21976601 -40 41 C-39.67386719 40.36835937 -39.34773438 39.73671875 -39.01171875 39.0859375 C-33.98819532 28.80179218 -32.14333915 18.29606303 -31 7 C-29.75605469 6.90203125 -28.51210937 6.8040625 -27.23046875 6.703125 C-12.61851786 6.12561754 -12.61851786 6.12561754 0 0 Z"/>
<path transform="translate(11,83)" fill="#F3F8F9" d="M0 0 C0.79289429 0.29765259 0.79289429 0.29765259 1.60180664 0.60131836 C7.50911106 2.70827192 13.22832832 3.78462749 19.4375 4.5625 C21.20801984 4.78524692 22.97763365 5.01535737 24.74609375 5.25390625 C25.90129517 5.39807983 25.90129517 5.39807983 27.07983398 5.54516602 C29 6 29 6 31 8 C31.36303711 9.92016602 31.36303711 9.92016602 31.52734375 12.25390625 C31.59759766 13.10919922 31.66785156 13.96449219 31.74023438 14.84570312 C31.86974937 16.62941958 31.99741349 18.41327158 32.12304688 20.19726562 C32.61815804 26.17874374 33.836231 31.39980734 36 37 C27.15857754 38.597441 20.27630051 37.55342687 12.703125 32.453125 C5.4859818 26.53832343 1.10486462 19.0709642 -1 10 C-1.1875 6.4375 -1.1875 6.4375 -1 4 C-0.34 3.67 0.32 3.34 1 3 C0.67 2.01 0.34 1.02 0 0 Z"/>
<path transform="translate(391.06640625,32.90234375)" fill="#106091" d="M0 0 C1.23556641 0.01740234 1.23556641 0.01740234 2.49609375 0.03515625 C3.32238281 0.04417969 4.14867187 0.05320313 5 0.0625 C5.63808594 0.07410156 6.27617187 0.08570313 6.93359375 0.09765625 C9.05694295 5.41574142 11.17470066 10.73600615 13.28735352 16.05834961 C14.00653055 17.86787615 14.72722006 19.67680236 15.44946289 21.48510742 C16.48854343 24.0874571 17.52212941 26.69193163 18.5546875 29.296875 C18.8776329 30.10227219 19.20057831 30.90766937 19.53330994 31.73747253 C21.02076352 35.50476525 22.33641271 39.06580081 22.93359375 43.09765625 C20.29359375 43.09765625 17.65359375 43.09765625 14.93359375 43.09765625 C13.61359375 39.79765625 12.29359375 36.49765625 10.93359375 33.09765625 C4.99359375 32.76765625 -0.94640625 32.43765625 -7.06640625 32.09765625 C-7.54078125 33.72703125 -8.01515625 35.35640625 -8.50390625 37.03515625 C-9.94140625 41.97265625 -9.94140625 41.97265625 -11.06640625 43.09765625 C-13.73699476 43.23880786 -16.39072863 43.14012732 -19.06640625 43.09765625 C-15.35039714 33.09766426 -11.56594902 23.12391547 -7.75390625 13.16015625 C-7.08705811 11.40856201 -7.08705811 11.40856201 -6.40673828 9.62158203 C-5.9889209 8.53216309 -5.57110352 7.44274414 -5.140625 6.3203125 C-4.76510498 5.33812744 -4.38958496 4.35594238 -4.00268555 3.34399414 C-2.66132218 0.12577137 -2.66132218 0.12577137 0 0 Z"/>
<path transform="translate(43,10)" fill="#F2F9F9" d="M0 0 C0 1.32 0 2.64 0 4 C0.66 4 1.32 4 2 4 C2 3.01 2 2.02 2 1 C2.99 1.33 3.98 1.66 5 2 C4.37609375 3.1034375 3.7521875 4.206875 3.109375 5.34375 C0.64796605 10.2665679 -0.08055483 15.08143206 -0.75 20.5 C-0.93755859 21.87671875 -0.93755859 21.87671875 -1.12890625 23.28125 C-1.43199845 25.51946932 -1.72205934 27.75854305 -2 30 C-5.16641449 30.48084266 -8.33317593 30.95936294 -11.5 31.4375 C-12.386875 31.57220703 -13.27375 31.70691406 -14.1875 31.84570312 C-16.79060455 32.23808286 -19.39499862 32.62044001 -22 33 C-22.77085938 33.11746582 -23.54171875 33.23493164 -24.3359375 33.35595703 C-27.6539817 33.82920372 -29.77322038 34.07559321 -33 33 C-32.58728462 22.92974482 -29.80296472 16.27518073 -22.99609375 8.82421875 C-19.70023964 5.81215638 -16.02147361 3.88125754 -12 2 C-10.700625 1.3503125 -10.700625 1.3503125 -9.375 0.6875 C-6.20565306 -0.22994253 -3.27869949 -0.12857645 0 0 Z"/>
<path transform="translate(6,50)" fill="#17A5DB" d="M0 0 C0.99 0 1.98 0 3 0 C4.00484204 1.95585325 5.00373805 3.91476237 6 5.875 C6.556875 6.96554688 7.11375 8.05609375 7.6875 9.1796875 C9 12 9 12 9 14 C10.65 14.33 12.3 14.66 14 15 C14 15.66 14 16.32 14 17 C15.051875 17.103125 16.10375 17.20625 17.1875 17.3125 C23.22265699 18.05194266 29.09846705 19.56959796 35 21 C33.68 21.33 32.36 21.66 31 22 C31 27.61 31 33.22 31 39 C18.20989387 38.24764082 7.47547392 36.98599409 -1.6015625 27.2890625 C-5.42370438 22.22846124 -5.66845212 17.28827412 -5.4375 11.07421875 C-4.79408208 6.55305888 -3.27989453 3.27989453 0 0 Z"/>
<path transform="translate(237,45)" fill="#136292" d="M0 0 C5.2322277 1.7440759 7.32310953 4.2410836 10 9 C11.69179466 14.07538397 11.56371867 18.31964436 9.375 23.1875 C7.17149594 27.10061929 5.22760259 29.18817032 1 31 C-5.41471596 31.75723241 -10.66270244 31.98921725 -16 28 C-19.50694329 23.55854174 -20.60811445 18.67923314 -20.3203125 13.10546875 C-19.6197674 8.50066623 -17.84983482 5.76692411 -14.4375 2.6875 C-9.6858951 -0.60207263 -5.67162068 -0.4711808 0 0 Z"/>
<path transform="translate(325,45)" fill="#136292" d="M0 0 C4.53066876 2.26533438 7.80969356 4.97012905 9.6875 9.75 C10.57157126 16.1153131 10.5073988 20.48837331 7 26 C4.06199154 29.39707228 2.04787742 30.83515538 -2.5234375 31.203125 C-12.29978471 31.36383208 -12.29978471 31.36383208 -16 28 C-19.9819742 23.35436344 -21.25446794 19.01562199 -21 13 C-20.10874413 8.52794623 -18.75660106 5.71969369 -15.4375 2.5625 C-10.40577263 -0.66296626 -5.89433525 -0.60774926 0 0 Z"/>
<path transform="translate(96,42)" fill="#0B5D85" d="M0 0 C12.51663807 0 22.31612396 1.94891375 31.66015625 10.5234375 C35.49787471 14.90634716 35.67453391 19.3831269 35.42578125 25.0546875 C34.67133589 30.27351139 33.01799583 34.38339385 28.859375 37.71484375 C27.93898438 38.35099609 27.93898438 38.35099609 27 39 C26.79246094 38.27554688 26.58492187 37.55109375 26.37109375 36.8046875 C24.66091422 31.43801533 23.12718043 26.76714617 18.546875 23.28125 C12.41305887 20.19552655 5.60176831 18.74000095 -1 17 C-0.67 11.39 -0.34 5.78 0 0 Z"/>
<path transform="translate(74.23046875,17.90234375)" fill="#0B5C85" d="M0 0 C1.20366211 0.00483398 1.20366211 0.00483398 2.43164062 0.00976562 C3.68170898 0.02233398 3.68170898 0.02233398 4.95703125 0.03515625 C5.80201172 0.03966797 6.64699219 0.04417969 7.51757812 0.04882812 C9.6015928 0.06060222 11.68557102 0.07853735 13.76953125 0.09765625 C15.73214585 8.67241289 17.06748923 16.96724111 17.08203125 25.78515625 C17.0871875 26.53845215 17.09234375 27.29174805 17.09765625 28.06787109 C17.04588794 32.16958486 16.59588837 35.4085604 14.76953125 39.09765625 C9.90268825 38.05476132 7.29532724 36.26488681 4.27734375 32.47265625 C1.03708385 27.36882719 -1.05209559 21.71492187 -3.23046875 16.09765625 C-3.648125 15.03804687 -4.06578125 13.9784375 -4.49609375 12.88671875 C-6.10555186 8.65905766 -7.23046875 5.67240944 -7.23046875 1.09765625 C-4.46481493 0.17577164 -2.84763173 -0.02019597 0 0 Z"/>
<path transform="translate(182,39)" fill="#F8FAFB" d="M0 0 C14 0 14 0 18 3 C21.65120265 6.74728693 22.30986694 9.86728514 22.5 14.9375 C22.28583435 20.50580697 21.57207641 23.69518996 18 28 C11.70619322 31.98179612 8.14599216 31 0 31 C0 20.77 0 10.54 0 0 Z"/>
<path transform="translate(650,45)" fill="#156393" d="M0 0 C4.5926563 1.79712638 6.74740081 4.66166082 9 9 C9.3125 12.8125 9.3125 12.8125 9 16 C8 17 8 17 6.14233398 17.11352539 C5.35157471 17.10828857 4.56081543 17.10305176 3.74609375 17.09765625 C2.89208984 17.09443359 2.03808594 17.09121094 1.15820312 17.08789062 C-0.18854492 17.07532227 -0.18854492 17.07532227 -1.5625 17.0625 C-2.46419922 17.05798828 -3.36589844 17.05347656 -4.29492188 17.04882812 C-6.53001314 17.03700225 -8.76497437 17.0205222 -11 17 C-9.73025028 21.41522109 -9.73025028 21.41522109 -7 25 C-2.66356399 25.31537716 -0.67346771 25.44897847 3 23 C5.1875 23.375 5.1875 23.375 7 24 C7.33 25.32 7.66 26.64 8 28 C2.36911621 31.75392253 -3.38264724 31.80787983 -10 31 C-13.81151433 29.26141451 -15.42797583 27.78176637 -17.875 24.4375 C-19.74284629 18.7301919 -20.08586674 12.77499277 -17.875 7.125 C-12.19165338 0.68387383 -8.70237781 -1.31191625 0 0 Z"/>
<path transform="translate(555,45)" fill="#126191" d="M0 0 C3.125 2.4375 3.125 2.4375 5 5 C5.33 5.33 5.66 5.66 6 6 C6.08737645 7.85369611 6.10698153 9.71067541 6.09765625 11.56640625 C6.09443359 12.69111328 6.09121094 13.81582031 6.08789062 14.97460938 C6.07951172 16.15861328 6.07113281 17.34261719 6.0625 18.5625 C6.05798828 19.75037109 6.05347656 20.93824219 6.04882812 22.16210938 C6.03699675 25.10812226 6.02051287 28.05403681 6 31 C4.35 31 2.7 31 1 31 C0.67 30.34 0.34 29.68 0 29 C-0.61875 29.33 -1.2375 29.66 -1.875 30 C-6.29030722 31.41289831 -10.40597416 31.61202031 -15 31 C-17.625 29.4375 -17.625 29.4375 -19 27 C-19.625 23.5625 -19.625 23.5625 -19 20 C-16.77623116 17.34910482 -14.09640493 15.54820246 -11 14 C-9.29297265 13.93003986 -7.58331997 13.91559846 -5.875 13.9375 C-4.96492187 13.94652344 -4.05484375 13.95554687 -3.1171875 13.96484375 C-2.06917969 13.98224609 -2.06917969 13.98224609 -1 14 C-1.66 11.69 -2.32 9.38 -3 7 C-7.47427924 6.91051442 -11.60563789 7.14256349 -16 8 C-16.33 6.68 -16.66 5.36 -17 4 C-11.80671944 -0.49148589 -6.75884526 -1.23449228 0 0 Z"/>
<path transform="translate(569,45)" fill="#136292" d="M0 0 C1.98 0 3.96 0 6 0 C6.66 0.99 7.32 1.98 8 3 C8.495 2.505 8.99 2.01 9.5 1.5 C13.020425 -0.612255 15.9895636 -0.4630607 20 0 C22.97469295 0.88436818 23.77748476 1.68828699 25.5871582 4.22338867 C27.18295309 7.35955167 27.34901524 9.24471678 27.29296875 12.73828125 C27.28330078 13.80498047 27.27363281 14.87167969 27.26367188 15.97070312 C27.23853516 17.07349609 27.21339844 18.17628906 27.1875 19.3125 C27.16719727 20.99569336 27.16719727 20.99569336 27.14648438 22.71289062 C27.1112138 25.47575229 27.06192235 28.23762829 27 31 C24.36 31 21.72 31 19 31 C18.505 18.625 18.505 18.625 18 6 C10.48238191 6.10832435 10.48238191 6.10832435 8 9 C7.62948007 11.3245339 7.62948007 11.3245339 7.5859375 14.0078125 C7.54726563 14.99394531 7.50859375 15.98007812 7.46875 16.99609375 C7.4378125 18.02863281 7.406875 19.06117187 7.375 20.125 C7.33632813 21.16527344 7.29765625 22.20554687 7.2578125 23.27734375 C7.16335234 25.85138311 7.07778786 28.42541155 7 31 C4.69 31 2.38 31 0 31 C0 20.77 0 10.54 0 0 Z"/>
<path transform="translate(287,36)" fill="#186594" d="M0 0 C1.98 0 3.96 0 6 0 C6 2.97 6 5.94 6 9 C8.64 9 11.28 9 14 9 C14 10.98 14 12.96 14 15 C11.36 15 8.72 15 6 15 C6 21.27 6 27.54 6 34 C8.31 34 10.62 34 13 34 C13.33 35.65 13.66 37.3 14 39 C11.58006642 40.20996679 9.8253367 40.27083271 7.125 40.375 C6.26132812 40.42398438 5.39765625 40.47296875 4.5078125 40.5234375 C2 40 2 40 -0.3046875 38.12109375 C-2.7460273 33.62655343 -2.43461274 29.71109668 -2.25 24.6875 C-2.23195313 23.75615234 -2.21390625 22.82480469 -2.1953125 21.86523438 C-2.14834888 19.57575803 -2.08269475 17.28841816 -2 15 C-3.32 15 -4.64 15 -6 15 C-6 13.35 -6 11.7 -6 10 C-4.35 10 -2.7 10 -1 10 C-0.67 6.7 -0.34 3.4 0 0 Z"/>
<path transform="translate(503,45)" fill="#136292" d="M0 0 C3.125 1.5 3.125 1.5 5 3 C4.67 4.32 4.34 5.64 4 7 C-1.445 6.505 -1.445 6.505 -7 6 C-7.33 7.32 -7.66 8.64 -8 10 C-7.15695312 10.39832031 -6.31390625 10.79664063 -5.4453125 11.20703125 C-3.80175781 12.00173828 -3.80175781 12.00173828 -2.125 12.8125 C-0.48917969 13.59560547 -0.48917969 13.59560547 1.1796875 14.39453125 C4 16 4 16 6 19 C6.50326079 22.85833276 6.31669325 24.50857943 4.1875 27.8125 C0.90458677 31.09541323 -1.91442173 31.17667543 -6.375 31.25 C-10.73706856 31.2268897 -13.5281475 30.87325724 -17 28 C-16.34 26.68 -15.68 25.36 -15 24 C-14.319375 24.165 -13.63875 24.33 -12.9375 24.5 C-9.5835178 25.07089059 -6.39610195 25.06659023 -3 25 C-2.67 23.68 -2.34 22.36 -2 21 C-2.84304688 20.67386719 -3.68609375 20.34773438 -4.5546875 20.01171875 C-5.65039062 19.57472656 -6.74609375 19.13773438 -7.875 18.6875 C-8.96554687 18.25824219 -10.05609375 17.82898438 -11.1796875 17.38671875 C-14 16 -14 16 -16 13 C-16.46797583 8.78821757 -16.46565795 6.71400886 -14.125 3.125 C-10.01779185 -0.98220815 -5.54830327 -0.52260313 0 0 Z"/>
<path transform="translate(460,45)" fill="#126191" d="M0 0 C3.125 1.5 3.125 1.5 5 3 C4.67 4.32 4.34 5.64 4 7 C-1.445 6.505 -1.445 6.505 -7 6 C-7.33 7.32 -7.66 8.64 -8 10 C-7.24074219 10.32613281 -6.48148437 10.65226562 -5.69921875 10.98828125 C-4.70535156 11.42527344 -3.71148437 11.86226562 -2.6875 12.3125 C-1.70136719 12.74175781 -0.71523438 13.17101563 0.30078125 13.61328125 C2.77960124 14.88677054 4.32725118 15.79754739 6 18 C6.5427086 22.18660919 6.4575921 24.27416426 4.1875 27.875 C0.21323686 31.73571277 -4.07482042 31.26218638 -9.32421875 31.234375 C-12.52805336 30.95374715 -14.52464559 30.04856917 -17 28 C-16.34 26.68 -15.68 25.36 -15 24 C-14.319375 24.165 -13.63875 24.33 -12.9375 24.5 C-9.5835178 25.07089059 -6.39610195 25.06659023 -3 25 C-2.67 23.68 -2.34 22.36 -2 21 C-2.75925781 20.68546875 -3.51851563 20.3709375 -4.30078125 20.046875 C-5.29464844 19.61890625 -6.28851563 19.1909375 -7.3125 18.75 C-8.29863281 18.33234375 -9.28476562 17.9146875 -10.30078125 17.484375 C-13.12593069 15.93074723 -14.3907788 14.76249639 -16 12 C-16.58490372 8.07278932 -16.34594305 6.51891457 -14.125 3.1875 C-10.05346324 -1.00378785 -5.57180264 -0.52481657 0 0 Z"/>
<path transform="translate(433,45)" fill="#126191" d="M0 0 C3.125 1.5 3.125 1.5 5 3 C4.67 4.32 4.34 5.64 4 7 C-1.445 6.505 -1.445 6.505 -7 6 C-7.33 7.32 -7.66 8.64 -8 10 C-7.24074219 10.32613281 -6.48148437 10.65226562 -5.69921875 10.98828125 C-4.70535156 11.42527344 -3.71148437 11.86226562 -2.6875 12.3125 C-1.70136719 12.74175781 -0.71523438 13.17101563 0.30078125 13.61328125 C2.77960124 14.88677054 4.32725118 15.79754739 6 18 C6.5427086 22.18660919 6.4575921 24.27416426 4.1875 27.875 C0.21323686 31.73571277 -4.07482042 31.26218638 -9.32421875 31.234375 C-12.52805336 30.95374715 -14.52464559 30.04856917 -17 28 C-16.34 26.68 -15.68 25.36 -15 24 C-14.34 24.165 -13.68 24.33 -13 24.5 C-9.26900206 25.12183299 -5.78126622 25.06408926 -2 25 C-2 23.68 -2 22.36 -2 21 C-2.75925781 20.68546875 -3.51851563 20.3709375 -4.30078125 20.046875 C-5.29464844 19.61890625 -6.28851563 19.1909375 -7.3125 18.75 C-8.29863281 18.33234375 -9.28476562 17.9146875 -10.30078125 17.484375 C-13.12593069 15.93074723 -14.3907788 14.76249639 -16 12 C-16.58490372 8.07278932 -16.34594305 6.51891457 -14.125 3.1875 C-10.05346324 -1.00378785 -5.57180264 -0.52481657 0 0 Z"/>
<path transform="translate(622,45)" fill="#176494" d="M0 0 C3.1875 1.5 3.1875 1.5 5 3 C4.34 4.65 3.68 6.3 3 8 C2.505 7.835 2.01 7.67 1.5 7.5 C-2.13360923 6.77327815 -5.28605766 6.76039082 -9 7 C-11.97177128 11.45765692 -11.61705298 15.77457662 -11 21 C-9.68102444 23.90640718 -9.68102444 23.90640718 -7 25 C-3.47105052 24.91256309 -3.47105052 24.91256309 0 24 C0.804375 23.814375 1.60875 23.62875 2.4375 23.4375 C2.953125 23.293125 3.46875 23.14875 4 23 C4.66 24.32 5.32 25.64 6 27 C1.23106224 31.23905579 -2.83320953 31.66858355 -9.1484375 31.45703125 C-13.52901295 30.75493902 -15.11816661 29.33685972 -18 26 C-21.06013106 21.09103975 -20.60621937 15.58320557 -20 10 C-18.3125 6.5 -18.3125 6.5 -16 4 C-14.9790625 2.824375 -14.9790625 2.824375 -13.9375 1.625 C-9.42255704 -0.87262802 -5.04640193 -0.65822634 0 0 Z"/>
<path transform="translate(272,45)" fill="#146393" d="M0 0 C3.125 1.5 3.125 1.5 5 3 C4.67 4.32 4.34 5.64 4 7 C1.90335107 7 -0.19463553 6.99103215 -2.2890625 6.89453125 C-3.05992187 6.86746094 -3.83078125 6.84039062 -4.625 6.8125 C-5.40101563 6.77769531 -6.17703125 6.74289063 -6.9765625 6.70703125 C-7.97816406 6.85205078 -7.97816406 6.85205078 -9 7 C-11.84247531 11.26371296 -11.50168853 14.99904134 -11 20 C-10.11672853 23.14939462 -10.11672853 23.14939462 -8 25 C-3.91399472 25.59587577 -2.47351075 25.31567384 1 23 C3.125 23.1875 3.125 23.1875 5 24 C5.33 24.99 5.66 25.98 6 27 C1.31705 31.05011892 -2.29388982 31.57922835 -8.4453125 31.3125 C-11.76909816 30.90592071 -13.54219665 30.30884557 -16 28 C-20.15819163 22.49320567 -20.92451282 17.82110072 -20 11 C-16.56428688 1.23534167 -9.47011831 -0.89200486 0 0 Z"/>
<path transform="translate(519,36)" fill="#0E5F90" d="M0 0 C1.65 0 3.3 0 5 0 C5 3.3 5 6.6 5 10 C7.64 10 10.28 10 13 10 C13 11.65 13 13.3 13 15 C10.36 15 7.72 15 5 15 C5.33 20.94 5.66 26.88 6 33 C8.31 33.66 10.62 34.32 13 35 C13.33 35.99 13.66 36.98 14 38 C10.877998 40.08133467 10.06733011 40.2737822 6.5 40.25 C5.33984375 40.25773437 5.33984375 40.25773437 4.15625 40.265625 C2 40 2 40 -1 38 C-1.96088383 35.11734851 -2.11670941 33.32337729 -2.09765625 30.33203125 C-2.09443359 29.43935547 -2.09121094 28.54667969 -2.08789062 27.62695312 C-2.07951172 26.69818359 -2.07113281 25.76941406 -2.0625 24.8125 C-2.05798828 23.87212891 -2.05347656 22.93175781 -2.04882812 21.96289062 C-2.03704626 19.64186288 -2.02059558 17.32096356 -2 15 C-3.65 14.67 -5.3 14.34 -7 14 C-7 12.68 -7 11.36 -7 10 C-5.35 9.67 -3.7 9.34 -2 9 C-1.34 6.03 -0.68 3.06 0 0 Z"/>
<path transform="translate(62,51)" fill="#0C5B83" d="M0 0 C2.64 0 5.28 0 8 0 C8 2.97 8 5.94 8 9 C10.64 9 13.28 9 16 9 C16 11.64 16 14.28 16 17 C13.36 17 10.72 17 8 17 C8 19.97 8 22.94 8 26 C5.36 26 2.72 26 0 26 C0 23.03 0 20.06 0 17 C-2.64 17 -5.28 17 -8 17 C-8 14.36 -8 11.72 -8 9 C-5.36 9 -2.72 9 0 9 C0 6.03 0 3.06 0 0 Z"/>
<path transform="translate(341,45)" fill="#186594" d="M0 0 C1.98 0 3.96 0 6 0 C6.66 0.99 7.32 1.98 8 3 C8.804375 2.2575 8.804375 2.2575 9.625 1.5 C12.59358445 -0.37489544 14.55312427 -0.23501425 18 0 C18 2.31 18 4.62 18 7 C16.88625 7.12375 15.7725 7.2475 14.625 7.375 C10.96896323 7.6465813 10.96896323 7.6465813 9 10 C8.62995706 12.22658154 8.62995706 12.22658154 8.5859375 14.7890625 C8.52792969 16.20058594 8.52792969 16.20058594 8.46875 17.640625 C8.42234375 19.11789063 8.42234375 19.11789063 8.375 20.625 C8.31699219 22.11386719 8.31699219 22.11386719 8.2578125 23.6328125 C8.1633686 26.08835385 8.07780125 28.5438841 8 31 C5.36 31 2.72 31 0 31 C0 20.77 0 10.54 0 0 Z"/>
<path transform="translate(122,88)" fill="#176388" d="M0 0 C-0.41261955 10.06791696 -3.19532548 16.72192962 -10 24.171875 C-16.60087214 30.20548469 -23.23488581 32.16855989 -32 32 C-31.67 30.02 -31.34 28.04 -31 26 C-30.41992188 25.82984375 -29.83984375 25.6596875 -29.2421875 25.484375 C-24.16907347 23.91053764 -20.32226999 22.05721536 -16 19 C-15.34 19 -14.68 19 -14 19 C-11.60353253 14.39140871 -9.45344326 9.71660663 -8.125 4.6875 C-7 2 -7 2 -4.5 0.625 C-2 0 -2 0 0 0 Z"/>
<path transform="translate(90,11)" fill="#115F86" d="M0 0 C8.47472428 0.19834461 15.60691211 2.06890032 22.04296875 7.828125 C28.85026094 15.201482 31.59074102 22.0140809 32 32 C29.1484375 31.35546875 29.1484375 31.35546875 26 30 C24.6015625 27.42578125 24.6015625 27.42578125 23.625 24.3125 C20.56736599 16.18153059 15.99203303 12.20366393 8.1875 8.625 C5.80890738 7.65672336 3.43808966 6.81269655 1 6 C0.67 4.02 0.34 2.04 0 0 Z"/>
<path transform="translate(11,89)" fill="#135F85" d="M0 0 C2.31 0.66 4.62 1.32 7 2 C7.37125 3.794375 7.37125 3.794375 7.75 5.625 C9.69346577 13.27739645 14.32283706 18.13335175 20.9375 22.1875 C23.89765268 23.35362075 26.93037166 24.1735616 30 25 C30.33 26.98 30.66 28.96 31 31 C22.42473533 31.71460539 16.99840691 29.53518775 10.3125 24.25 C5.19967237 19.62744352 1.57462774 13.72795489 0 7 C-0.07522969 4.66787973 -0.09325876 2.3314689 0 0 Z"/>
<path transform="translate(42,11)" fill="#126186" d="M0 0 C-0.33 1.98 -0.66 3.96 -1 6 C-2.051875 6.31130859 -2.051875 6.31130859 -3.125 6.62890625 C-11.16202191 9.2387544 -16.77635796 12.70181061 -21.875 19.5 C-23.15993597 22.12768777 -23.15993597 22.12768777 -23.8125 25.6875 C-24.204375 26.780625 -24.59625 27.87375 -25 29 C-28.125 30.4375 -28.125 30.4375 -31 31 C-31.74187712 22.09747457 -29.35041024 16.68981179 -23.8125 9.8125 C-17.12319232 2.48886142 -9.71792766 -0.18688322 0 0 Z"/>
<path transform="translate(231.9375,50.4375)" fill="#F7F9FB" d="M0 0 C3.11152634 0.18909829 3.97072224 0.49366668 6.5625 2.4375 C8.69041634 6.87065904 8.97261955 10.73490932 8.0625 15.5625 C5.61392684 19.16334288 4.25969681 20.31817412 0 21.1875 C-2.9375 20.5625 -2.9375 20.5625 -5.3125 18.75 C-7.65692428 14.15132161 -7.77663428 9.63510455 -6.9375 4.5625 C-4.86835866 0.84056893 -4.42064406 0.63152058 0 0 Z"/>
<path transform="translate(324,51)" fill="#F8FAFC" d="M0 0 C2.11236162 2.08852006 2.91131594 3.46528726 3.3984375 6.40234375 C3.3125972 15.6874028 3.3125972 15.6874028 0 19 C-3.4375 20.0625 -3.4375 20.0625 -7 20 C-9.41281883 18.15863826 -10.65150913 16.69698174 -12 14 C-12.16796875 11.9765625 -12.16796875 11.9765625 -12.1875 9.625 C-12.20167969 8.85414062 -12.21585937 8.08328125 -12.23046875 7.2890625 C-11.97404645 4.7422241 -11.35625154 3.16048491 -10 1 C-6.89079391 -0.55460305 -3.36916972 -0.72720693 0 0 Z"/>
<path transform="translate(472,45)" fill="#1E6997" d="M0 0 C2.64 0 5.28 0 8 0 C8 10.23 8 20.46 8 31 C5.36 31 2.72 31 0 31 C0 20.77 0 10.54 0 0 Z"/>
<path transform="translate(393,41)" fill="#E9F0F5" d="M0 0 C2.14642449 3.21963674 3.35881354 6.44429859 4.625 10.0625 C4.85445313 10.69994141 5.08390625 11.33738281 5.3203125 11.99414062 C7 16.738258 7 16.738258 7 19 C2.71 19 -1.58 19 -6 19 C-5.25966102 14.55796611 -4.42405836 10.89161346 -3 6.6875 C-2.649375 5.63949219 -2.29875 4.59148438 -1.9375 3.51171875 C-1 1 -1 1 0 0 Z"/>
<path transform="translate(646.5625,50.25)" fill="#F5F8FA" d="M0 0 C3.4375 0.75 3.4375 0.75 5.4375 2.75 C5.4375 4.07 5.4375 5.39 5.4375 6.75 C1.1475 6.75 -3.1425 6.75 -7.5625 6.75 C-7.2325 5.1 -6.9025 3.45 -6.5625 1.75 C-3.5625 -0.25 -3.5625 -0.25 0 0 Z"/>
<path transform="translate(554,63)" fill="#F6F9FB" d="M0 0 C0.1875 2.875 0.1875 2.875 0 6 C-3.6441774 8.4294516 -5.71241272 8.16179575 -10 8 C-10.625 5.625 -10.625 5.625 -11 3 C-7.72430636 -0.27569364 -4.48909309 -0.12469703 0 0 Z"/>
<path transform="translate(475.9375,31.8125)" fill="#196695" d="M0 0 C3.0625 0.1875 3.0625 0.1875 5.0625 2.1875 C4.73278521 5.48464793 4.4398161 6.8101839 2.0625 9.1875 C-1.23464793 8.85778521 -2.5601839 8.5648161 -4.9375 6.1875 C-4.21574268 0.26908996 -4.21574268 0.26908996 0 0 Z"/>
<path transform="translate(119,30)" fill="#20698B" d="M0 0 C2.10827055 3.16240582 2.33817465 4.50657469 2.625 8.1875 C2.69976562 9.08855469 2.77453125 9.98960938 2.8515625 10.91796875 C2.90054688 11.60503906 2.94953125 12.29210938 3 13 C-2.875 11.125 -2.875 11.125 -4 10 C-4.50104005 6.39251163 -4.15319133 5.2154253 -2 2.1875 C-1.34 1.465625 -0.68 0.74375 0 0 Z"/>
<path transform="translate(122,82)" fill="#DAF5F7" d="M0 0 C0.66 0.33 1.32 0.66 2 1 C1.01 1.99 0.02 2.98 -1 4 C-0.67 4.66 -0.34 5.32 0 6 C-1.134375 6.391875 -2.26875 6.78375 -3.4375 7.1875 C-7.20339051 8.58610882 -7.20339051 8.58610882 -7.9375 11.6875 C-7.958125 12.450625 -7.97875 13.21375 -8 14 C-8.33 14 -8.66 14 -9 14 C-9 11.36 -9 8.72 -9 6 C-9.99 6.495 -9.99 6.495 -11 7 C-13.6723621 7.13415472 -16.32250488 7.04318541 -19 7 C-19 6.67 -19 6.34 -19 6 C-18.04738281 5.81824219 -17.09476562 5.63648437 -16.11328125 5.44921875 C-14.23189453 5.07216797 -14.23189453 5.07216797 -12.3125 4.6875 C-10.45044922 4.32205078 -10.45044922 4.32205078 -8.55078125 3.94921875 C-5.18477175 3.04939443 -2.93392782 1.80264755 0 0 Z"/>
<path transform="translate(99,60)" fill="#DCF3F4" d="M0 0 C1.79232337 0.30871122 3.58384321 0.62209064 5.375 0.9375 C6.87160156 1.19853516 6.87160156 1.19853516 8.3984375 1.46484375 C11 2 11 2 13 3 C12.67 3.99 12.34 4.98 12 6 C9.49609375 6.94921875 9.49609375 6.94921875 6.4375 7.6875 C4.91962891 8.06455078 4.91962891 8.06455078 3.37109375 8.44921875 C2.58863281 8.63097656 1.80617188 8.81273438 1 9 C1.66 7.02 2.32 5.04 3 3 C2.01 2.01 1.02 1.02 0 0 Z"/>
<path transform="translate(121,35)" fill="#E6F2F4" d="M0 0 C0.66 0.33 1.32 0.66 2 1 C2.8125 4.3125 2.8125 4.3125 3 8 C2.01 9.32 1.02 10.64 0 12 C-5.94 10.515 -5.94 10.515 -12 9 C-12 8.67 -12 8.34 -12 8 C-11.21625 7.87625 -10.4325 7.7525 -9.625 7.625 C-6.85942178 7.20882007 -6.85942178 7.20882007 -5 5 C-3.02 5.99 -1.04 6.98 1 8 C0.67 5.36 0.34 2.72 0 0 Z"/>
<path transform="translate(42,111)" fill="#D0E3E9" d="M0 0 C0.66 0 1.32 0 2 0 C2.99 2.97 3.98 5.94 5 9 C1.7 9.33 -1.6 9.66 -5 10 C-5 9.67 -5 9.34 -5 9 C-3.35 9 -1.7 9 0 9 C-0.66 6.69 -1.32 4.38 -2 2 C-1.34 2 -0.68 2 0 2 C0 1.34 0 0.68 0 0 Z"/>
<path transform="translate(11,83)" fill="#D7EBEF" d="M0 0 C2.97 0.99 5.94 1.98 9 3 C8.01 3.495 8.01 3.495 7 4 C6.67 4.99 6.34 5.98 6 7 C3.03 6.505 3.03 6.505 0 6 C-0.33 7.32 -0.66 8.64 -1 10 C-1 8.02 -1 6.04 -1 4 C-0.34 3.67 0.32 3.34 1 3 C0.67 2.01 0.34 1.02 0 0 Z"/>
<path transform="translate(36,10)" fill="#C6E5EA" d="M0 0 C2.31 0 4.62 0 7 0 C7 1.32 7 2.64 7 4 C7.66 4 8.32 4 9 4 C9 3.01 9 2.02 9 1 C9.99 1.33 10.98 1.66 12 2 C10.68 4.64 9.36 7.28 8 10 C7.01 9.01 6.02 8.02 5 7 C5.3125 3.8125 5.3125 3.8125 6 1 C4.02 1 2.04 1 0 1 C0 0.67 0 0.34 0 0 Z"/>
<path transform="translate(10,38)" fill="#CBE4EA" d="M0 0 C0.33 1.32 0.66 2.64 1 4 C3.31 3.01 5.62 2.02 8 1 C8 1.66 8 2.32 8 3 C8.99 3.66 9.98 4.32 11 5 C9.741875 5.185625 8.48375 5.37125 7.1875 5.5625 C6.12595703 5.71912109 6.12595703 5.71912109 5.04296875 5.87890625 C3 6 3 6 0 5 C0 3.35 0 1.7 0 0 Z"/>
<path transform="translate(88,10)" fill="#C6E1E6" d="M0 0 C2.31 0 4.62 0 7 0 C7 0.33 7 0.66 7 1 C5.35 1 3.7 1 2 1 C2.33 2.98 2.66 4.96 3 7 C2.566875 6.505 2.13375 6.01 1.6875 5.5 C0.00259517 3.66781808 0.00259517 3.66781808 -3 4 C-3.33 3.01 -3.66 2.02 -4 1 C-2.68 1.33 -1.36 1.66 0 2 C0 1.34 0 0.68 0 0 Z"/>
<path transform="translate(121,74)" fill="#17B7D0" d="M0 0 C1.41377341 2.63904371 2.37240135 5.07120629 3 8 C1.68 8.33 0.36 8.66 -1 9 C-2.0326802 6.21176345 -2.04509293 5.1322726 -1.0625 2.25 C-0.711875 1.5075 -0.36125 0.765 0 0 Z"/>
<path transform="translate(115,40)" fill="#D5E6EB" d="M0 0 C3 2 3 2 4 5 C0.7 4.67 -2.6 4.34 -6 4 C-6 3.67 -6 3.34 -6 3 C-5.195625 2.87625 -4.39125 2.7525 -3.5625 2.625 C-2.716875 2.41875 -1.87125 2.2125 -1 2 C-0.67 1.34 -0.34 0.68 0 0 Z"/>
<path transform="translate(65,21)" fill="#D4F0F3" d="M0 0 C0.66 0 1.32 0 2 0 C2.33 1.98 2.66 3.96 3 6 C2.67 5.34 2.34 4.68 2 4 C0.68 4.33 -0.64 4.66 -2 5 C-1.34 3.35 -0.68 1.7 0 0 Z"/>
<path transform="translate(86,114)" fill="#D2E4E8" d="M0 0 C0.33 0 0.66 0 1 0 C1 2.31 1 4.62 1 7 C-0.65 7.66 -2.3 8.32 -4 9 C-2.68 6.03 -1.36 3.06 0 0 Z"/>
</svg>